<svg width="40" height="13" viewBox="0 0 40 13" fill="none" xmlns="http://www.w3.org/2000/svg">
<path d="M0.328 12V0.719999H7.72V2.048H1.944V5.6H7.352V6.944H1.944V10.656H7.72V12H0.328ZM9.63713 12V5.872C9.63713 5.56267 9.62113 5.248 9.58913 4.928C9.56779 4.59733 9.54113 4.26667 9.50912 3.936H11.0771L11.2211 5.632H11.0291C11.2531 5.04533 11.5945 4.592 12.0531 4.272C12.5225 3.952 13.0825 3.792 13.7331 3.792C14.3945 3.792 14.9331 3.952 15.3491 4.272C15.7758 4.58133 16.0691 5.06133 16.2291 5.712H15.9731C16.1865 5.12533 16.5491 4.66133 17.0611 4.32C17.5731 3.968 18.1651 3.792 18.8371 3.792C19.7331 3.792 20.4051 4.05333 20.8531 4.576C21.3011 5.09867 21.5251 5.90933 21.5251 7.008V12H19.9091V7.088C19.9091 6.384 19.7865 5.87733 19.5411 5.568C19.3065 5.248 18.9225 5.088 18.3891 5.088C17.7705 5.088 17.2798 5.30133 16.9171 5.728C16.5545 6.15467 16.3731 6.73067 16.3731 7.456V12H14.7571V7.088C14.7571 6.384 14.6345 5.87733 14.3891 5.568C14.1545 5.248 13.7705 5.088 13.2371 5.088C12.6185 5.088 12.1331 5.30133 11.7811 5.728C11.4291 6.15467 11.2531 6.73067 11.2531 7.456V12H9.63713ZM26.9283 12.144C26.2136 12.144 25.5896 11.9787 25.0563 11.648C24.5229 11.3173 24.1069 10.8373 23.8083 10.208C23.5203 9.57867 23.3763 8.832 23.3763 7.968C23.3763 7.09333 23.5203 6.34667 23.8083 5.728C24.1069 5.10933 24.5229 4.63467 25.0563 4.304C25.5896 3.96267 26.2136 3.792 26.9283 3.792C27.6323 3.792 28.2456 3.968 28.7683 4.32C29.2909 4.672 29.6376 5.152 29.8083 5.76H29.6323L29.7923 3.936H31.3603C31.3283 4.26667 31.2963 4.59733 31.2643 4.928C31.2429 5.248 31.2323 5.56267 31.2323 5.872V12H29.6163V10.208H29.7923C29.6216 10.8053 29.2696 11.28 28.7363 11.632C28.2136 11.9733 27.6109 12.144 26.9283 12.144ZM27.3283 10.88C28.0216 10.88 28.5763 10.6347 28.9923 10.144C29.4189 9.65333 29.6323 8.928 29.6323 7.968C29.6323 7.008 29.4189 6.288 28.9923 5.808C28.5763 5.31733 28.0216 5.072 27.3283 5.072C26.6243 5.072 26.0589 5.31733 25.6323 5.808C25.2163 6.288 25.0082 7.008 25.0082 7.968C25.0082 8.928 25.2163 9.65333 25.6323 10.144C26.0483 10.6347 26.6136 10.88 27.3283 10.88ZM33.5903 12V3.936H35.2063V12H33.5903ZM33.4622 2.256V0.575999H35.3343V2.256H33.4622ZM37.5746 12V0.223999H39.1906V12H37.5746Z" fill="#312D64"/>
</svg>
