<svg width="210" height="16" viewBox="0 0 210 16" fill="none" xmlns="http://www.w3.org/2000/svg">
<path d="M0.328 12V0.719999H4.232C5.50133 0.719999 6.57333 0.938666 7.448 1.376C8.33333 1.81333 9 2.45333 9.448 3.296C9.90667 4.128 10.136 5.14667 10.136 6.352C10.136 7.54667 9.90667 8.56533 9.448 9.408C9 10.2507 8.33333 10.896 7.448 11.344C6.57333 11.7813 5.50133 12 4.232 12H0.328ZM1.992 10.608H4.136C5.58667 10.608 6.664 10.256 7.368 9.552C8.08267 8.848 8.44 7.78133 8.44 6.352C8.44 4.92267 8.08267 3.86133 7.368 3.168C6.664 2.464 5.58667 2.112 4.136 2.112H1.992V10.608ZM12.2465 12V3.936H13.8625V12H12.2465ZM12.1185 2.256V0.575999H13.9905V2.256H12.1185ZM19.8629 15.584C19.1375 15.584 18.4762 15.4987 17.8789 15.328C17.2922 15.1573 16.7642 14.9013 16.2949 14.56L16.6949 13.376C17.0255 13.6 17.3509 13.776 17.6709 13.904C17.9909 14.0427 18.3269 14.144 18.6789 14.208C19.0309 14.272 19.3935 14.304 19.7669 14.304C20.5349 14.304 21.1109 14.1067 21.4949 13.712C21.8895 13.328 22.0869 12.768 22.0869 12.032V9.872H22.2469C22.0762 10.4693 21.7242 10.944 21.1909 11.296C20.6682 11.6373 20.0602 11.808 19.3669 11.808C18.6309 11.808 17.9909 11.648 17.4469 11.328C16.9135 10.9973 16.4975 10.5333 16.1989 9.936C15.9109 9.328 15.7669 8.61333 15.7669 7.792C15.7669 6.97067 15.9109 6.26133 16.1989 5.664C16.4975 5.06667 16.9135 4.608 17.4469 4.288C17.9909 3.95733 18.6309 3.792 19.3669 3.792C20.0709 3.792 20.6789 3.968 21.1909 4.32C21.7135 4.66133 22.0602 5.13067 22.2309 5.728L22.0869 5.6L22.2309 3.936H23.7989C23.7562 4.26667 23.7242 4.59733 23.7029 4.928C23.6815 5.248 23.6709 5.56267 23.6709 5.872V11.84C23.6709 13.056 23.3455 13.984 22.6949 14.624C22.0549 15.264 21.1109 15.584 19.8629 15.584ZM19.7509 10.544C20.4549 10.544 21.0149 10.304 21.4309 9.824C21.8575 9.344 22.0709 8.66667 22.0709 7.792C22.0709 6.91733 21.8575 6.24533 21.4309 5.776C21.0149 5.30667 20.4549 5.072 19.7509 5.072C19.0255 5.072 18.4495 5.30667 18.0229 5.776C17.6069 6.24533 17.3989 6.91733 17.3989 7.792C17.3989 8.66667 17.6069 9.344 18.0229 9.824C18.4495 10.304 19.0255 10.544 19.7509 10.544ZM26.0278 12V3.936H27.6438V12H26.0278ZM25.8997 2.256V0.575999H27.7718V2.256H25.8997ZM33.1481 12.144C32.2735 12.144 31.6121 11.9093 31.1641 11.44C30.7161 10.96 30.4921 10.2453 30.4921 9.296V5.184H28.9241V3.936H30.4921V1.808L32.1081 1.376V3.936H34.3481V5.184H32.1081V9.152C32.1081 9.74933 32.2148 10.176 32.4281 10.432C32.6415 10.688 32.9508 10.816 33.3561 10.816C33.5588 10.816 33.7348 10.8 33.8841 10.768C34.0441 10.7253 34.1881 10.6773 34.3161 10.624V11.936C34.1561 12 33.9695 12.048 33.7561 12.08C33.5428 12.1227 33.3401 12.144 33.1481 12.144ZM39.4745 12.144C38.1732 12.144 37.1492 11.776 36.4025 11.04C35.6558 10.304 35.2825 9.28533 35.2825 7.984C35.2825 7.14133 35.4425 6.40533 35.7625 5.776C36.0932 5.14667 36.5465 4.66133 37.1225 4.32C37.7092 3.968 38.3865 3.792 39.1545 3.792C39.9118 3.792 40.5465 3.952 41.0585 4.272C41.5705 4.592 41.9598 5.04533 42.2265 5.632C42.4932 6.208 42.6265 6.89067 42.6265 7.68V8.192H36.5465V7.264H41.5225L41.2505 7.472C41.2505 6.672 41.0692 6.05333 40.7065 5.616C40.3545 5.168 39.8425 4.944 39.1705 4.944C38.4238 4.944 37.8478 5.20533 37.4425 5.728C37.0372 6.24 36.8345 6.94933 36.8345 7.856V8.016C36.8345 8.96533 37.0638 9.68 37.5225 10.16C37.9918 10.64 38.6532 10.88 39.5065 10.88C39.9758 10.88 40.4132 10.816 40.8185 10.688C41.2345 10.5493 41.6292 10.3253 42.0025 10.016L42.5305 11.12C42.1572 11.4507 41.7038 11.7067 41.1705 11.888C40.6372 12.0587 40.0718 12.144 39.4745 12.144ZM51.5145 12.144C50.8425 12.144 50.2238 12.0587 49.6585 11.888C49.0932 11.7173 48.6238 11.4773 48.2505 11.168L48.7465 10.064C49.1412 10.3627 49.5785 10.5867 50.0585 10.736C50.5385 10.8853 51.0292 10.96 51.5305 10.96C52.1172 10.96 52.5598 10.8587 52.8585 10.656C53.1572 10.4427 53.3065 10.1547 53.3065 9.792C53.3065 9.51467 53.2105 9.29067 53.0185 9.12C52.8372 8.94933 52.5332 8.82133 52.1065 8.736L50.5705 8.432C49.8878 8.28267 49.3705 8.02667 49.0185 7.664C48.6665 7.30133 48.4905 6.83733 48.4905 6.272C48.4905 5.792 48.6185 5.36533 48.8745 4.992C49.1412 4.61867 49.5145 4.32533 49.9945 4.112C50.4852 3.89867 51.0558 3.792 51.7065 3.792C52.3038 3.792 52.8585 3.87733 53.3705 4.048C53.8825 4.21867 54.3092 4.464 54.6505 4.784L54.1385 5.856C53.8078 5.57867 53.4345 5.36533 53.0185 5.216C52.6025 5.056 52.1812 4.976 51.7545 4.976C51.1572 4.976 50.7145 5.088 50.4265 5.312C50.1385 5.536 49.9945 5.82933 49.9945 6.192C49.9945 6.46933 50.0798 6.69867 50.2505 6.88C50.4318 7.05067 50.7145 7.184 51.0985 7.28L52.6345 7.584C53.3598 7.73333 53.9038 7.97867 54.2665 8.32C54.6292 8.66133 54.8105 9.12 54.8105 9.696C54.8105 10.1973 54.6718 10.6347 54.3945 11.008C54.1172 11.3813 53.7332 11.664 53.2425 11.856C52.7518 12.048 52.1758 12.144 51.5145 12.144ZM59.5793 12.144C58.6086 12.144 57.8779 11.8827 57.3873 11.36C56.9073 10.8267 56.6673 10.0107 56.6673 8.912V3.936H58.2833V8.88C58.2833 9.552 58.4219 10.048 58.6993 10.368C58.9766 10.688 59.3979 10.848 59.9633 10.848C60.6033 10.848 61.1206 10.6347 61.5153 10.208C61.9099 9.78133 62.1073 9.216 62.1073 8.512V3.936H63.7233V12H62.1553V10.272H62.3633C62.1393 10.8693 61.7819 11.3333 61.2913 11.664C60.8006 11.984 60.2299 12.144 59.5793 12.144ZM69.1783 12.144C68.4636 12.144 67.8396 11.9787 67.3063 11.648C66.7729 11.3173 66.3569 10.8373 66.0583 10.208C65.7703 9.57867 65.6263 8.832 65.6263 7.968C65.6263 7.09333 65.7703 6.34667 66.0583 5.728C66.3569 5.10933 66.7729 4.63467 67.3063 4.304C67.8396 3.96267 68.4636 3.792 69.1783 3.792C69.8823 3.792 70.4956 3.968 71.0183 4.32C71.5409 4.672 71.8876 5.152 72.0583 5.76H71.8823L72.0423 3.936H73.6103C73.5783 4.26667 73.5463 4.59733 73.5143 4.928C73.4929 5.248 73.4823 5.56267 73.4823 5.872V12H71.8663V10.208H72.0423C71.8716 10.8053 71.5196 11.28 70.9863 11.632C70.4636 11.9733 69.8609 12.144 69.1783 12.144ZM69.5783 10.88C70.2716 10.88 70.8263 10.6347 71.2423 10.144C71.6689 9.65333 71.8823 8.928 71.8823 7.968C71.8823 7.008 71.6689 6.288 71.2423 5.808C70.8263 5.31733 70.2716 5.072 69.5783 5.072C68.8743 5.072 68.3089 5.31733 67.8823 5.808C67.4663 6.288 67.2582 7.008 67.2582 7.968C67.2582 8.928 67.4663 9.65333 67.8823 10.144C68.2983 10.6347 68.8636 10.88 69.5783 10.88ZM80.1059 12V5.872C80.1059 5.56267 80.0899 5.248 80.0579 4.928C80.0365 4.59733 80.0099 4.26667 79.9779 3.936H81.5459L81.6899 5.632H81.4979C81.7219 5.04533 82.0632 4.592 82.5219 4.272C82.9912 3.952 83.5512 3.792 84.2019 3.792C84.8632 3.792 85.4019 3.952 85.8179 4.272C86.2445 4.58133 86.5379 5.06133 86.6979 5.712H86.4419C86.6552 5.12533 87.0179 4.66133 87.5299 4.32C88.0419 3.968 88.6339 3.792 89.3059 3.792C90.2019 3.792 90.8739 4.05333 91.3219 4.576C91.7699 5.09867 91.9939 5.90933 91.9939 7.008V12H90.3779V7.088C90.3779 6.384 90.2552 5.87733 90.0099 5.568C89.7752 5.248 89.3912 5.088 88.8579 5.088C88.2392 5.088 87.7485 5.30133 87.3859 5.728C87.0232 6.15467 86.8419 6.73067 86.8419 7.456V12H85.2259V7.088C85.2259 6.384 85.1032 5.87733 84.8579 5.568C84.6232 5.248 84.2392 5.088 83.7059 5.088C83.0872 5.088 82.6019 5.30133 82.2499 5.728C81.8979 6.15467 81.7219 6.73067 81.7219 7.456V12H80.1059ZM98.037 12.144C96.7357 12.144 95.7117 11.776 94.965 11.04C94.2183 10.304 93.845 9.28533 93.845 7.984C93.845 7.14133 94.005 6.40533 94.325 5.776C94.6557 5.14667 95.109 4.66133 95.685 4.32C96.2717 3.968 96.949 3.792 97.717 3.792C98.4743 3.792 99.109 3.952 99.621 4.272C100.133 4.592 100.522 5.04533 100.789 5.632C101.056 6.208 101.189 6.89067 101.189 7.68V8.192H95.109V7.264H100.085L99.813 7.472C99.813 6.672 99.6317 6.05333 99.269 5.616C98.917 5.168 98.405 4.944 97.733 4.944C96.9863 4.944 96.4103 5.20533 96.005 5.728C95.5997 6.24 95.397 6.94933 95.397 7.856V8.016C95.397 8.96533 95.6263 9.68 96.085 10.16C96.5543 10.64 97.2157 10.88 98.069 10.88C98.5383 10.88 98.9757 10.816 99.381 10.688C99.797 10.5493 100.192 10.3253 100.565 10.016L101.093 11.12C100.72 11.4507 100.266 11.7067 99.733 11.888C99.1997 12.0587 98.6343 12.144 98.037 12.144ZM103.043 12V5.872C103.043 5.56267 103.027 5.248 102.995 4.928C102.974 4.59733 102.947 4.26667 102.915 3.936H104.483L104.627 5.632H104.435C104.681 5.03467 105.059 4.58133 105.571 4.272C106.083 3.952 106.675 3.792 107.347 3.792C108.297 3.792 109.011 4.05333 109.491 4.576C109.982 5.09867 110.227 5.90933 110.227 7.008V12H108.611V7.104C108.611 6.38933 108.467 5.87733 108.179 5.568C107.902 5.248 107.475 5.088 106.899 5.088C106.217 5.088 105.673 5.30133 105.267 5.728C104.862 6.144 104.659 6.70933 104.659 7.424V12H103.043ZM115.296 12.144C114.624 12.144 114.005 12.0587 113.44 11.888C112.874 11.7173 112.405 11.4773 112.032 11.168L112.528 10.064C112.922 10.3627 113.36 10.5867 113.84 10.736C114.32 10.8853 114.81 10.96 115.312 10.96C115.898 10.96 116.341 10.8587 116.64 10.656C116.938 10.4427 117.088 10.1547 117.088 9.792C117.088 9.51467 116.992 9.29067 116.8 9.12C116.618 8.94933 116.314 8.82133 115.888 8.736L114.352 8.432C113.669 8.28267 113.152 8.02667 112.8 7.664C112.448 7.30133 112.272 6.83733 112.272 6.272C112.272 5.792 112.4 5.36533 112.656 4.992C112.922 4.61867 113.296 4.32533 113.776 4.112C114.266 3.89867 114.837 3.792 115.488 3.792C116.085 3.792 116.64 3.87733 117.152 4.048C117.664 4.21867 118.09 4.464 118.432 4.784L117.92 5.856C117.589 5.57867 117.216 5.36533 116.8 5.216C116.384 5.056 115.962 4.976 115.536 4.976C114.938 4.976 114.496 5.088 114.208 5.312C113.92 5.536 113.776 5.82933 113.776 6.192C113.776 6.46933 113.861 6.69867 114.032 6.88C114.213 7.05067 114.496 7.184 114.88 7.28L116.416 7.584C117.141 7.73333 117.685 7.97867 118.048 8.32C118.41 8.66133 118.592 9.12 118.592 9.696C118.592 10.1973 118.453 10.6347 118.176 11.008C117.898 11.3813 117.514 11.664 117.024 11.856C116.533 12.048 115.957 12.144 115.296 12.144ZM123.585 12.144C122.87 12.144 122.246 11.9787 121.713 11.648C121.179 11.3173 120.763 10.8373 120.465 10.208C120.177 9.57867 120.033 8.832 120.033 7.968C120.033 7.09333 120.177 6.34667 120.465 5.728C120.763 5.10933 121.179 4.63467 121.713 4.304C122.246 3.96267 122.87 3.792 123.585 3.792C124.289 3.792 124.902 3.968 125.425 4.32C125.947 4.672 126.294 5.152 126.465 5.76H126.289L126.449 3.936H128.017C127.985 4.26667 127.953 4.59733 127.921 4.928C127.899 5.248 127.889 5.56267 127.889 5.872V12H126.273V10.208H126.449C126.278 10.8053 125.926 11.28 125.393 11.632C124.87 11.9733 124.267 12.144 123.585 12.144ZM123.985 10.88C124.678 10.88 125.233 10.6347 125.649 10.144C126.075 9.65333 126.289 8.928 126.289 7.968C126.289 7.008 126.075 6.288 125.649 5.808C125.233 5.31733 124.678 5.072 123.985 5.072C123.281 5.072 122.715 5.31733 122.289 5.808C121.873 6.288 121.664 7.008 121.664 7.968C121.664 8.928 121.873 9.65333 122.289 10.144C122.705 10.6347 123.27 10.88 123.985 10.88ZM133.879 15.584C133.153 15.584 132.492 15.4987 131.895 15.328C131.308 15.1573 130.78 14.9013 130.311 14.56L130.711 13.376C131.041 13.6 131.367 13.776 131.687 13.904C132.007 14.0427 132.343 14.144 132.695 14.208C133.047 14.272 133.409 14.304 133.783 14.304C134.551 14.304 135.127 14.1067 135.511 13.712C135.905 13.328 136.103 12.768 136.103 12.032V9.872H136.263C136.092 10.4693 135.74 10.944 135.207 11.296C134.684 11.6373 134.076 11.808 133.383 11.808C132.647 11.808 132.007 11.648 131.463 11.328C130.929 10.9973 130.513 10.5333 130.215 9.936C129.927 9.328 129.783 8.61333 129.783 7.792C129.783 6.97067 129.927 6.26133 130.215 5.664C130.513 5.06667 130.929 4.608 131.463 4.288C132.007 3.95733 132.647 3.792 133.383 3.792C134.087 3.792 134.695 3.968 135.207 4.32C135.729 4.66133 136.076 5.13067 136.247 5.728L136.103 5.6L136.247 3.936H137.815C137.772 4.26667 137.74 4.59733 137.719 4.928C137.697 5.248 137.687 5.56267 137.687 5.872V11.84C137.687 13.056 137.361 13.984 136.711 14.624C136.071 15.264 135.127 15.584 133.879 15.584ZM133.766 10.544C134.471 10.544 135.031 10.304 135.447 9.824C135.873 9.344 136.087 8.66667 136.087 7.792C136.087 6.91733 135.873 6.24533 135.447 5.776C135.031 5.30667 134.471 5.072 133.766 5.072C133.041 5.072 132.465 5.30667 132.039 5.776C131.623 6.24533 131.414 6.91733 131.414 7.792C131.414 8.66667 131.623 9.344 132.039 9.824C132.465 10.304 133.041 10.544 133.766 10.544ZM143.771 12.144C142.47 12.144 141.446 11.776 140.699 11.04C139.953 10.304 139.579 9.28533 139.579 7.984C139.579 7.14133 139.739 6.40533 140.059 5.776C140.39 5.14667 140.843 4.66133 141.419 4.32C142.006 3.968 142.683 3.792 143.451 3.792C144.209 3.792 144.843 3.952 145.355 4.272C145.867 4.592 146.257 5.04533 146.523 5.632C146.79 6.208 146.923 6.89067 146.923 7.68V8.192H140.843V7.264H145.819L145.547 7.472C145.547 6.672 145.366 6.05333 145.003 5.616C144.651 5.168 144.139 4.944 143.467 4.944C142.721 4.944 142.145 5.20533 141.739 5.728C141.334 6.24 141.131 6.94933 141.131 7.856V8.016C141.131 8.96533 141.361 9.68 141.819 10.16C142.289 10.64 142.95 10.88 143.803 10.88C144.273 10.88 144.71 10.816 145.115 10.688C145.531 10.5493 145.926 10.3253 146.299 10.016L146.827 11.12C146.454 11.4507 146.001 11.7067 145.467 11.888C144.934 12.0587 144.369 12.144 143.771 12.144ZM148.778 12V5.872C148.778 5.56267 148.762 5.248 148.73 4.928C148.708 4.59733 148.682 4.26667 148.65 3.936H150.218L150.362 5.632H150.17C150.394 5.04533 150.735 4.592 151.194 4.272C151.663 3.952 152.223 3.792 152.874 3.792C153.535 3.792 154.074 3.952 154.49 4.272C154.916 4.58133 155.21 5.06133 155.37 5.712H155.114C155.327 5.12533 155.69 4.66133 156.202 4.32C156.714 3.968 157.306 3.792 157.978 3.792C158.874 3.792 159.546 4.05333 159.994 4.576C160.442 5.09867 160.666 5.90933 160.666 7.008V12H159.05V7.088C159.05 6.384 158.927 5.87733 158.682 5.568C158.447 5.248 158.063 5.088 157.53 5.088C156.911 5.088 156.42 5.30133 156.058 5.728C155.695 6.15467 155.514 6.73067 155.514 7.456V12H153.898V7.088C153.898 6.384 153.775 5.87733 153.53 5.568C153.295 5.248 152.911 5.088 152.378 5.088C151.759 5.088 151.274 5.30133 150.922 5.728C150.57 6.15467 150.394 6.73067 150.394 7.456V12H148.778ZM170.335 12.144C169.62 12.144 168.996 11.9787 168.463 11.648C167.929 11.3173 167.513 10.8373 167.215 10.208C166.927 9.57867 166.783 8.832 166.783 7.968C166.783 7.09333 166.927 6.34667 167.215 5.728C167.513 5.10933 167.929 4.63467 168.463 4.304C168.996 3.96267 169.62 3.792 170.335 3.792C171.039 3.792 171.652 3.968 172.175 4.32C172.697 4.672 173.044 5.152 173.215 5.76H173.039L173.199 3.936H174.767C174.735 4.26667 174.703 4.59733 174.671 4.928C174.649 5.248 174.639 5.56267 174.639 5.872V12H173.023V10.208H173.199C173.028 10.8053 172.676 11.28 172.143 11.632C171.62 11.9733 171.017 12.144 170.335 12.144ZM170.735 10.88C171.428 10.88 171.983 10.6347 172.399 10.144C172.825 9.65333 173.039 8.928 173.039 7.968C173.039 7.008 172.825 6.288 172.399 5.808C171.983 5.31733 171.428 5.072 170.735 5.072C170.031 5.072 169.465 5.31733 169.039 5.808C168.623 6.288 168.414 7.008 168.414 7.968C168.414 8.928 168.623 9.65333 169.039 10.144C169.455 10.6347 170.02 10.88 170.735 10.88ZM182.773 15.456V10.208H182.949C182.778 10.8053 182.426 11.28 181.893 11.632C181.37 11.9733 180.767 12.144 180.085 12.144C179.37 12.144 178.746 11.9787 178.213 11.648C177.679 11.3173 177.263 10.8373 176.965 10.208C176.677 9.57867 176.533 8.832 176.533 7.968C176.533 7.09333 176.677 6.34667 176.965 5.728C177.263 5.10933 177.679 4.63467 178.213 4.304C178.746 3.96267 179.37 3.792 180.085 3.792C180.789 3.792 181.402 3.968 181.925 4.32C182.447 4.672 182.794 5.152 182.965 5.76H182.789L182.949 3.936H184.517C184.485 4.26667 184.453 4.59733 184.421 4.928C184.399 5.248 184.389 5.56267 184.389 5.872V15.456H182.773ZM180.485 10.88C181.178 10.88 181.733 10.6347 182.149 10.144C182.575 9.65333 182.789 8.928 182.789 7.968C182.789 7.008 182.575 6.288 182.149 5.808C181.733 5.31733 181.178 5.072 180.485 5.072C179.781 5.072 179.215 5.31733 178.789 5.808C178.373 6.288 178.164 7.008 178.164 7.968C178.164 8.928 178.373 9.65333 178.789 10.144C179.205 10.6347 179.77 10.88 180.485 10.88ZM189.611 12.144C188.64 12.144 187.909 11.8827 187.419 11.36C186.939 10.8267 186.699 10.0107 186.699 8.912V3.936H188.315V8.88C188.315 9.552 188.453 10.048 188.731 10.368C189.008 10.688 189.429 10.848 189.995 10.848C190.635 10.848 191.152 10.6347 191.547 10.208C191.941 9.78133 192.139 9.216 192.139 8.512V3.936H193.755V12H192.187V10.272H192.395C192.171 10.8693 191.813 11.3333 191.323 11.664C190.832 11.984 190.261 12.144 189.611 12.144ZM196.122 12V3.936H197.738V12H196.122ZM195.993 2.256V0.575999H197.866V2.256H195.993ZM199.866 12V10.096H201.77V12H199.866ZM203.663 12V10.096H205.567V12H203.663ZM207.46 12V10.096H209.364V12H207.46Z" fill="#312D64"/>
</svg>
