<svg width="348" height="48" viewBox="0 0 348 48" fill="none" xmlns="http://www.w3.org/2000/svg">
<path d="M29.5926 15.0272C28.6805 14.0423 27.4064 13.5 26.0001 13.5C24.5864 13.5 23.3081 14.0391 22.4001 15.0178C21.4823 16.0073 21.0351 17.3522 21.1401 18.8044C21.3483 21.6694 23.5284 24 26.0001 24C28.4719 24 30.6483 21.6698 30.8597 18.8053C30.9661 17.3662 30.5161 16.0242 29.5926 15.0272Z" fill="#B52184"/>
<path d="M34.2501 34.5H17.7501C17.5342 34.5028 17.3203 34.4574 17.1241 34.3672C16.9278 34.2769 16.7542 34.1441 16.6158 33.9783C16.3111 33.6141 16.1883 33.1167 16.2792 32.6137C16.6748 30.4191 17.9095 28.5755 19.8501 27.2812C21.5742 26.1323 23.7581 25.5 26.0001 25.5C28.2422 25.5 30.4261 26.1328 32.1501 27.2812C34.0908 28.575 35.3255 30.4186 35.7211 32.6133C35.812 33.1162 35.6892 33.6136 35.3845 33.9778C35.2461 34.1437 35.0725 34.2766 34.8763 34.367C34.6801 34.4573 34.4662 34.5028 34.2501 34.5Z" fill="#B52184"/>
<path d="M55.136 30.144C54.2293 30.144 53.408 30.032 52.672 29.808C51.936 29.5733 51.296 29.2427 50.752 28.816L51.312 27.504C51.6747 27.7813 52.048 28.0107 52.432 28.192C52.8267 28.3733 53.2427 28.512 53.68 28.608C54.128 28.6933 54.6133 28.736 55.136 28.736C56.032 28.736 56.688 28.576 57.104 28.256C57.5307 27.936 57.744 27.5147 57.744 26.992C57.744 26.544 57.5947 26.1973 57.296 25.952C57.008 25.7067 56.496 25.5093 55.76 25.36L54.016 25.008C52.9813 24.7947 52.208 24.448 51.696 23.968C51.1947 23.4773 50.944 22.8107 50.944 21.968C50.944 21.2853 51.1253 20.688 51.488 20.176C51.8507 19.664 52.352 19.2693 52.992 18.992C53.6427 18.7147 54.4 18.576 55.264 18.576C56.064 18.576 56.8 18.6933 57.472 18.928C58.144 19.152 58.7093 19.488 59.168 19.936L58.624 21.2C58.144 20.784 57.632 20.48 57.088 20.288C56.544 20.0853 55.9253 19.984 55.232 19.984C54.4107 19.984 53.7653 20.1547 53.296 20.496C52.8373 20.8373 52.608 21.3013 52.608 21.888C52.608 22.3573 52.752 22.7253 53.04 22.992C53.3387 23.2587 53.8293 23.4613 54.512 23.6L56.256 23.936C57.3333 24.16 58.128 24.5067 58.64 24.976C59.152 25.4347 59.408 26.0693 59.408 26.88C59.408 27.5307 59.232 28.1013 58.88 28.592C58.5387 29.0827 58.048 29.4667 57.408 29.744C56.768 30.0107 56.0107 30.144 55.136 30.144ZM65.037 30.144C63.7357 30.144 62.7117 29.776 61.965 29.04C61.2183 28.304 60.845 27.2853 60.845 25.984C60.845 25.1413 61.005 24.4053 61.325 23.776C61.6557 23.1467 62.109 22.6613 62.685 22.32C63.2717 21.968 63.949 21.792 64.717 21.792C65.4743 21.792 66.109 21.952 66.621 22.272C67.133 22.592 67.5223 23.0453 67.789 23.632C68.0557 24.208 68.189 24.8907 68.189 25.68V26.192H62.109V25.264H67.085L66.813 25.472C66.813 24.672 66.6317 24.0533 66.269 23.616C65.917 23.168 65.405 22.944 64.733 22.944C63.9863 22.944 63.4103 23.2053 63.005 23.728C62.5997 24.24 62.397 24.9493 62.397 25.856V26.016C62.397 26.9653 62.6263 27.68 63.085 28.16C63.5543 28.64 64.2157 28.88 65.069 28.88C65.5383 28.88 65.9757 28.816 66.381 28.688C66.797 28.5493 67.1917 28.3253 67.565 28.016L68.093 29.12C67.7197 29.4507 67.2663 29.7067 66.733 29.888C66.1997 30.0587 65.6343 30.144 65.037 30.144ZM72.9074 30.144C71.9367 30.144 71.206 29.8827 70.7154 29.36C70.2354 28.8267 69.9954 28.0107 69.9954 26.912V21.936H71.6114V26.88C71.6114 27.552 71.75 28.048 72.0274 28.368C72.3047 28.688 72.726 28.848 73.2914 28.848C73.9314 28.848 74.4487 28.6347 74.8434 28.208C75.238 27.7813 75.4354 27.216 75.4354 26.512V21.936H77.0514V30H75.4834V28.272H75.6914C75.4674 28.8693 75.11 29.3333 74.6194 29.664C74.1287 29.984 73.558 30.144 72.9074 30.144ZM83.684 30V23.872C83.684 23.5627 83.668 23.248 83.636 22.928C83.6147 22.5973 83.588 22.2667 83.556 21.936H85.124L85.268 23.632H85.076C85.3213 23.0347 85.7 22.5813 86.212 22.272C86.724 21.952 87.316 21.792 87.988 21.792C88.9373 21.792 89.652 22.0533 90.132 22.576C90.6227 23.0987 90.868 23.9093 90.868 25.008V30H89.252V25.104C89.252 24.3893 89.108 23.8773 88.82 23.568C88.5427 23.248 88.116 23.088 87.54 23.088C86.8573 23.088 86.3133 23.3013 85.908 23.728C85.5027 24.144 85.3 24.7093 85.3 25.424V30H83.684ZM96.6244 30.144C95.8244 30.144 95.131 29.9787 94.5444 29.648C93.9577 29.3067 93.5044 28.8267 93.1844 28.208C92.8644 27.5787 92.7044 26.832 92.7044 25.968C92.7044 25.104 92.8644 24.3627 93.1844 23.744C93.5044 23.1147 93.9577 22.6347 94.5444 22.304C95.131 21.9627 95.8244 21.792 96.6244 21.792C97.4244 21.792 98.1177 21.9627 98.7044 22.304C99.3017 22.6347 99.7604 23.1147 100.08 23.744C100.411 24.3627 100.576 25.104 100.576 25.968C100.576 26.832 100.411 27.5787 100.08 28.208C99.7604 28.8267 99.3017 29.3067 98.7044 29.648C98.1177 29.9787 97.4244 30.144 96.6244 30.144ZM96.6244 28.88C97.3284 28.88 97.8884 28.6347 98.3044 28.144C98.7204 27.6533 98.9284 26.928 98.9284 25.968C98.9284 25.008 98.7204 24.288 98.3044 23.808C97.8884 23.3173 97.3284 23.072 96.6244 23.072C95.931 23.072 95.3764 23.3173 94.9604 23.808C94.5444 24.288 94.3364 25.008 94.3364 25.968C94.3364 26.928 94.539 27.6533 94.9444 28.144C95.3604 28.6347 95.9204 28.88 96.6244 28.88ZM102.465 30V23.872C102.465 23.5627 102.449 23.248 102.417 22.928C102.396 22.5973 102.369 22.2667 102.337 21.936H103.905L104.049 23.632H103.857C104.081 23.0453 104.423 22.592 104.881 22.272C105.351 21.952 105.911 21.792 106.561 21.792C107.223 21.792 107.761 21.952 108.177 22.272C108.604 22.5813 108.897 23.0613 109.057 23.712H108.801C109.015 23.1253 109.377 22.6613 109.889 22.32C110.401 21.968 110.993 21.792 111.665 21.792C112.561 21.792 113.233 22.0533 113.681 22.576C114.129 23.0987 114.353 23.9093 114.353 25.008V30H112.737V25.088C112.737 24.384 112.615 23.8773 112.369 23.568C112.135 23.248 111.751 23.088 111.217 23.088C110.599 23.088 110.108 23.3013 109.745 23.728C109.383 24.1547 109.201 24.7307 109.201 25.456V30H107.585V25.088C107.585 24.384 107.463 23.8773 107.217 23.568C106.983 23.248 106.599 23.088 106.065 23.088C105.447 23.088 104.961 23.3013 104.609 23.728C104.257 24.1547 104.081 24.7307 104.081 25.456V30H102.465ZM120.396 30.144C119.095 30.144 118.071 29.776 117.324 29.04C116.578 28.304 116.204 27.2853 116.204 25.984C116.204 25.1413 116.364 24.4053 116.684 23.776C117.015 23.1467 117.468 22.6613 118.044 22.32C118.631 21.968 119.308 21.792 120.076 21.792C120.834 21.792 121.468 21.952 121.98 22.272C122.492 22.592 122.882 23.0453 123.148 23.632C123.415 24.208 123.548 24.8907 123.548 25.68V26.192H117.468V25.264H122.444L122.172 25.472C122.172 24.672 121.991 24.0533 121.628 23.616C121.276 23.168 120.764 22.944 120.092 22.944C119.346 22.944 118.77 23.2053 118.364 23.728C117.959 24.24 117.756 24.9493 117.756 25.856V26.016C117.756 26.9653 117.986 27.68 118.444 28.16C118.914 28.64 119.575 28.88 120.428 28.88C120.898 28.88 121.335 28.816 121.74 28.688C122.156 28.5493 122.551 28.3253 122.924 28.016L123.452 29.12C123.079 29.4507 122.626 29.7067 122.092 29.888C121.559 30.0587 120.994 30.144 120.396 30.144Z" fill="#312D64"/>
<rect x="0.75" y="0.75" width="346.5" height="46.5" rx="15.25" stroke="#312D64" stroke-width="1.5"/>
</svg>
