<svg width="348" height="48" viewBox="0 0 348 48" fill="none" xmlns="http://www.w3.org/2000/svg">
<path d="M33.1528 17.4274C31.6481 15.7867 29.4262 14.9196 26.7262 14.9196C24.3356 14.9196 22.0059 15.8477 20.1731 17.5352C18.3403 19.2227 17.2153 21.4633 17.0043 23.8539C16.7934 26.2774 17.5434 28.5555 19.1137 30.2711C20.6793 31.9774 22.8637 32.9196 25.2731 32.9196C26.7965 32.9196 27.7856 32.8071 29.2809 32.1836C29.6606 32.0242 29.8434 31.5836 29.684 31.2039C29.5246 30.8242 29.084 30.6414 28.7043 30.8008C27.4293 31.3352 26.6512 31.4242 25.2778 31.4242C23.295 31.4242 21.4996 30.6555 20.2246 29.2633C18.9403 27.8617 18.3262 25.9867 18.5043 23.9899C18.87 19.818 22.5637 16.4242 26.7356 16.4242C29.0043 16.4242 30.8418 17.1227 32.0559 18.4446C33.209 19.7055 33.7246 21.4446 33.5465 23.4696C33.3918 25.2227 32.7122 26.0852 32.1731 26.4977C31.6575 26.8914 31.1418 26.9758 30.8606 26.9242C30.0309 26.7789 29.5996 25.9633 29.7075 24.7539L30.1059 20.2399C30.1434 19.8274 29.8387 19.4617 29.4262 19.4289C29.0137 19.3914 28.6481 19.6961 28.6153 20.1086L28.5778 20.5352C27.8653 19.818 26.9184 19.4242 25.9012 19.4242C24.7856 19.4242 23.7215 19.8977 22.9012 20.7555C22.1137 21.5758 21.6262 22.6821 21.5231 23.8586C21.4059 25.1664 21.795 26.4039 22.5778 27.2617C23.2621 28.0117 24.209 28.4242 25.245 28.4242C26.3887 28.4242 27.4668 28.0024 28.2778 27.243C28.3903 27.1399 28.4981 27.0274 28.5965 26.9102C29.0606 27.8055 29.8575 28.2696 30.6075 28.4055C31.3996 28.5461 32.3278 28.2789 33.0965 27.693C33.8793 27.093 34.8496 25.8977 35.0512 23.6055C35.2434 21.1727 34.5778 18.9836 33.1528 17.4274ZM25.2262 26.9196C24.6075 26.9196 24.0684 26.6852 23.6653 26.2446C23.1637 25.6961 22.92 24.8711 22.9996 23.9852C23.1496 22.2649 24.42 20.9196 25.8871 20.9196C26.534 20.9196 27.1293 21.1821 27.57 21.6602C28.0809 22.218 28.3293 23.0149 28.2543 23.8539C28.0668 25.968 26.595 26.9196 25.2262 26.9196Z" fill="#B52184"/>
<path d="M51.328 30V18.72H58.72V20.048H52.944V23.6H58.352V24.944H52.944V28.656H58.72V30H51.328ZM60.6371 30V23.872C60.6371 23.5627 60.6211 23.248 60.5891 22.928C60.5678 22.5973 60.5411 22.2667 60.5091 21.936H62.0771L62.2211 23.632H62.0291C62.2531 23.0453 62.5945 22.592 63.0531 22.272C63.5225 21.952 64.0825 21.792 64.7331 21.792C65.3945 21.792 65.9331 21.952 66.3491 22.272C66.7758 22.5813 67.0691 23.0613 67.2291 23.712H66.9731C67.1865 23.1253 67.5491 22.6613 68.0611 22.32C68.5731 21.968 69.1651 21.792 69.8371 21.792C70.7331 21.792 71.4051 22.0533 71.8531 22.576C72.3011 23.0987 72.5251 23.9093 72.5251 25.008V30H70.9091V25.088C70.9091 24.384 70.7865 23.8773 70.5411 23.568C70.3065 23.248 69.9225 23.088 69.3891 23.088C68.7705 23.088 68.2798 23.3013 67.9171 23.728C67.5545 24.1547 67.3731 24.7307 67.3731 25.456V30H65.7571V25.088C65.7571 24.384 65.6345 23.8773 65.3891 23.568C65.1545 23.248 64.7705 23.088 64.2371 23.088C63.6185 23.088 63.1331 23.3013 62.7811 23.728C62.4291 24.1547 62.2531 24.7307 62.2531 25.456V30H60.6371ZM77.9283 30.144C77.2136 30.144 76.5896 29.9787 76.0563 29.648C75.5229 29.3173 75.1069 28.8373 74.8083 28.208C74.5203 27.5787 74.3763 26.832 74.3763 25.968C74.3763 25.0933 74.5203 24.3467 74.8083 23.728C75.1069 23.1093 75.5229 22.6347 76.0563 22.304C76.5896 21.9627 77.2136 21.792 77.9283 21.792C78.6323 21.792 79.2456 21.968 79.7683 22.32C80.2909 22.672 80.6376 23.152 80.8083 23.76H80.6323L80.7923 21.936H82.3603C82.3283 22.2667 82.2963 22.5973 82.2643 22.928C82.2429 23.248 82.2323 23.5627 82.2323 23.872V30H80.6163V28.208H80.7923C80.6216 28.8053 80.2696 29.28 79.7363 29.632C79.2136 29.9733 78.6109 30.144 77.9283 30.144ZM78.3283 28.88C79.0216 28.88 79.5763 28.6347 79.9923 28.144C80.4189 27.6533 80.6323 26.928 80.6323 25.968C80.6323 25.008 80.4189 24.288 79.9923 23.808C79.5763 23.3173 79.0216 23.072 78.3283 23.072C77.6243 23.072 77.0589 23.3173 76.6323 23.808C76.2163 24.288 76.0082 25.008 76.0082 25.968C76.0082 26.928 76.2163 27.6533 76.6323 28.144C77.0483 28.6347 77.6136 28.88 78.3283 28.88ZM84.5903 30V21.936H86.2063V30H84.5903ZM84.4622 20.256V18.576H86.3343V20.256H84.4622ZM88.5746 30V18.224H90.1906V30H88.5746Z" fill="#312D64"/>
<rect x="0.75" y="0.75" width="346.5" height="46.5" rx="15.25" stroke="#312D64" stroke-width="1.5"/>
</svg>
