<svg width="74" height="13" viewBox="0 0 74 13" fill="none" xmlns="http://www.w3.org/2000/svg">
<path d="M5.136 12.144C4.22933 12.144 3.408 12.032 2.672 11.808C1.936 11.5733 1.296 11.2427 0.752 10.816L1.312 9.504C1.67467 9.78133 2.048 10.0107 2.432 10.192C2.82667 10.3733 3.24267 10.512 3.68 10.608C4.128 10.6933 4.61333 10.736 5.136 10.736C6.032 10.736 6.688 10.576 7.104 10.256C7.53067 9.936 7.744 9.51467 7.744 8.992C7.744 8.544 7.59467 8.19733 7.296 7.952C7.008 7.70667 6.496 7.50933 5.76 7.36L4.016 7.008C2.98133 6.79467 2.208 6.448 1.696 5.968C1.19467 5.47733 0.944 4.81067 0.944 3.968C0.944 3.28533 1.12533 2.688 1.488 2.176C1.85067 1.664 2.352 1.26933 2.992 0.992C3.64267 0.714666 4.4 0.575999 5.264 0.575999C6.064 0.575999 6.8 0.693333 7.472 0.927999C8.144 1.152 8.70933 1.488 9.168 1.936L8.624 3.2C8.144 2.784 7.632 2.48 7.088 2.288C6.544 2.08533 5.92533 1.984 5.232 1.984C4.41067 1.984 3.76533 2.15467 3.296 2.496C2.83733 2.83733 2.608 3.30133 2.608 3.888C2.608 4.35733 2.752 4.72533 3.04 4.992C3.33867 5.25867 3.82933 5.46133 4.512 5.6L6.256 5.936C7.33333 6.16 8.128 6.50667 8.64 6.976C9.152 7.43467 9.408 8.06933 9.408 8.88C9.408 9.53067 9.232 10.1013 8.88 10.592C8.53867 11.0827 8.048 11.4667 7.408 11.744C6.768 12.0107 6.01067 12.144 5.136 12.144ZM15.037 12.144C13.7357 12.144 12.7117 11.776 11.965 11.04C11.2183 10.304 10.845 9.28533 10.845 7.984C10.845 7.14133 11.005 6.40533 11.325 5.776C11.6557 5.14667 12.109 4.66133 12.685 4.32C13.2717 3.968 13.949 3.792 14.717 3.792C15.4743 3.792 16.109 3.952 16.621 4.272C17.133 4.592 17.5223 5.04533 17.789 5.632C18.0557 6.208 18.189 6.89067 18.189 7.68V8.192H12.109V7.264H17.085L16.813 7.472C16.813 6.672 16.6317 6.05333 16.269 5.616C15.917 5.168 15.405 4.944 14.733 4.944C13.9863 4.944 13.4103 5.20533 13.005 5.728C12.5997 6.24 12.397 6.94933 12.397 7.856V8.016C12.397 8.96533 12.6263 9.68 13.085 10.16C13.5543 10.64 14.2157 10.88 15.069 10.88C15.5383 10.88 15.9757 10.816 16.381 10.688C16.797 10.5493 17.1917 10.3253 17.565 10.016L18.093 11.12C17.7197 11.4507 17.2663 11.7067 16.733 11.888C16.1997 12.0587 15.6343 12.144 15.037 12.144ZM22.9074 12.144C21.9367 12.144 21.206 11.8827 20.7154 11.36C20.2354 10.8267 19.9954 10.0107 19.9954 8.912V3.936H21.6114V8.88C21.6114 9.552 21.75 10.048 22.0274 10.368C22.3047 10.688 22.726 10.848 23.2914 10.848C23.9314 10.848 24.4487 10.6347 24.8434 10.208C25.238 9.78133 25.4354 9.216 25.4354 8.512V3.936H27.0514V12H25.4834V10.272H25.6914C25.4674 10.8693 25.11 11.3333 24.6194 11.664C24.1287 11.984 23.558 12.144 22.9074 12.144ZM33.684 12V5.872C33.684 5.56267 33.668 5.248 33.636 4.928C33.6147 4.59733 33.588 4.26667 33.556 3.936H35.124L35.268 5.632H35.076C35.3213 5.03467 35.7 4.58133 36.212 4.272C36.724 3.952 37.316 3.792 37.988 3.792C38.9373 3.792 39.652 4.05333 40.132 4.576C40.6227 5.09867 40.868 5.90933 40.868 7.008V12H39.252V7.104C39.252 6.38933 39.108 5.87733 38.82 5.568C38.5427 5.248 38.116 5.088 37.54 5.088C36.8573 5.088 36.3133 5.30133 35.908 5.728C35.5027 6.144 35.3 6.70933 35.3 7.424V12H33.684ZM46.6244 12.144C45.8244 12.144 45.131 11.9787 44.5444 11.648C43.9577 11.3067 43.5044 10.8267 43.1844 10.208C42.8644 9.57867 42.7044 8.832 42.7044 7.968C42.7044 7.104 42.8644 6.36267 43.1844 5.744C43.5044 5.11467 43.9577 4.63467 44.5444 4.304C45.131 3.96267 45.8244 3.792 46.6244 3.792C47.4244 3.792 48.1177 3.96267 48.7044 4.304C49.3017 4.63467 49.7604 5.11467 50.0804 5.744C50.411 6.36267 50.5764 7.104 50.5764 7.968C50.5764 8.832 50.411 9.57867 50.0804 10.208C49.7604 10.8267 49.3017 11.3067 48.7044 11.648C48.1177 11.9787 47.4244 12.144 46.6244 12.144ZM46.6244 10.88C47.3284 10.88 47.8884 10.6347 48.3044 10.144C48.7204 9.65333 48.9284 8.928 48.9284 7.968C48.9284 7.008 48.7204 6.288 48.3044 5.808C47.8884 5.31733 47.3284 5.072 46.6244 5.072C45.931 5.072 45.3764 5.31733 44.9604 5.808C44.5444 6.288 44.3364 7.008 44.3364 7.968C44.3364 8.928 44.539 9.65333 44.9444 10.144C45.3604 10.6347 45.9204 10.88 46.6244 10.88ZM52.4653 12V5.872C52.4653 5.56267 52.4493 5.248 52.4173 4.928C52.3959 4.59733 52.3693 4.26667 52.3372 3.936H53.9053L54.0493 5.632H53.8573C54.0813 5.04533 54.4226 4.592 54.8813 4.272C55.3506 3.952 55.9106 3.792 56.5613 3.792C57.2226 3.792 57.7613 3.952 58.1773 4.272C58.6039 4.58133 58.8973 5.06133 59.0573 5.712H58.8013C59.0146 5.12533 59.3773 4.66133 59.8893 4.32C60.4013 3.968 60.9933 3.792 61.6653 3.792C62.5613 3.792 63.2333 4.05333 63.6813 4.576C64.1293 5.09867 64.3533 5.90933 64.3533 7.008V12H62.7373V7.088C62.7373 6.384 62.6146 5.87733 62.3693 5.568C62.1346 5.248 61.7506 5.088 61.2173 5.088C60.5986 5.088 60.1079 5.30133 59.7453 5.728C59.3826 6.15467 59.2013 6.73067 59.2013 7.456V12H57.5853V7.088C57.5853 6.384 57.4626 5.87733 57.2173 5.568C56.9826 5.248 56.5986 5.088 56.0653 5.088C55.4466 5.088 54.9613 5.30133 54.6093 5.728C54.2573 6.15467 54.0813 6.73067 54.0813 7.456V12H52.4653ZM70.3964 12.144C69.095 12.144 68.071 11.776 67.3244 11.04C66.5777 10.304 66.2044 9.28533 66.2044 7.984C66.2044 7.14133 66.3644 6.40533 66.6844 5.776C67.015 5.14667 67.4684 4.66133 68.0444 4.32C68.631 3.968 69.3084 3.792 70.0764 3.792C70.8337 3.792 71.4684 3.952 71.9804 4.272C72.4924 4.592 72.8817 5.04533 73.1484 5.632C73.415 6.208 73.5484 6.89067 73.5484 7.68V8.192H67.4684V7.264H72.4444L72.1724 7.472C72.1724 6.672 71.991 6.05333 71.6284 5.616C71.2764 5.168 70.7644 4.944 70.0924 4.944C69.3457 4.944 68.7697 5.20533 68.3644 5.728C67.959 6.24 67.7564 6.94933 67.7564 7.856V8.016C67.7564 8.96533 67.9857 9.68 68.4444 10.16C68.9137 10.64 69.575 10.88 70.4284 10.88C70.8977 10.88 71.335 10.816 71.7404 10.688C72.1564 10.5493 72.551 10.3253 72.9244 10.016L73.4524 11.12C73.079 11.4507 72.6257 11.7067 72.0924 11.888C71.559 12.0587 70.9937 12.144 70.3964 12.144Z" fill="#312D64"/>
</svg>
