<svg width="348" height="126" viewBox="0 0 348 126" fill="none" xmlns="http://www.w3.org/2000/svg">
<path d="M17.328 29V17.72H21.232C22.5013 17.72 23.5733 17.9387 24.448 18.376C25.3333 18.8133 26 19.4533 26.448 20.296C26.9067 21.128 27.136 22.1467 27.136 23.352C27.136 24.5467 26.9067 25.5653 26.448 26.408C26 27.2507 25.3333 27.896 24.448 28.344C23.5733 28.7813 22.5013 29 21.232 29H17.328ZM18.992 27.608H21.136C22.5867 27.608 23.664 27.256 24.368 26.552C25.0827 25.848 25.44 24.7813 25.44 23.352C25.44 21.9227 25.0827 20.8613 24.368 20.168C23.664 19.464 22.5867 19.112 21.136 19.112H18.992V27.608ZM29.2465 29V20.936H30.8625V29H29.2465ZM29.1185 19.256V17.576H30.9905V19.256H29.1185ZM36.8629 32.584C36.1375 32.584 35.4762 32.4987 34.8789 32.328C34.2922 32.1573 33.7642 31.9013 33.2949 31.56L33.6949 30.376C34.0255 30.6 34.3509 30.776 34.6709 30.904C34.9909 31.0427 35.3269 31.144 35.6789 31.208C36.0309 31.272 36.3935 31.304 36.7669 31.304C37.5349 31.304 38.1109 31.1067 38.4949 30.712C38.8895 30.328 39.0869 29.768 39.0869 29.032V26.872H39.2469C39.0762 27.4693 38.7242 27.944 38.1909 28.296C37.6682 28.6373 37.0602 28.808 36.3669 28.808C35.6309 28.808 34.9909 28.648 34.4469 28.328C33.9135 27.9973 33.4975 27.5333 33.1989 26.936C32.9109 26.328 32.7669 25.6133 32.7669 24.792C32.7669 23.9707 32.9109 23.2613 33.1989 22.664C33.4975 22.0667 33.9135 21.608 34.4469 21.288C34.9909 20.9573 35.6309 20.792 36.3669 20.792C37.0709 20.792 37.6789 20.968 38.1909 21.32C38.7135 21.6613 39.0602 22.1307 39.2309 22.728L39.0869 22.6L39.2309 20.936H40.7989C40.7562 21.2667 40.7242 21.5973 40.7029 21.928C40.6815 22.248 40.6709 22.5627 40.6709 22.872V28.84C40.6709 30.056 40.3455 30.984 39.6949 31.624C39.0549 32.264 38.1109 32.584 36.8629 32.584ZM36.7509 27.544C37.4549 27.544 38.0149 27.304 38.4309 26.824C38.8575 26.344 39.0709 25.6667 39.0709 24.792C39.0709 23.9173 38.8575 23.2453 38.4309 22.776C38.0149 22.3067 37.4549 22.072 36.7509 22.072C36.0255 22.072 35.4495 22.3067 35.0229 22.776C34.6069 23.2453 34.3989 23.9173 34.3989 24.792C34.3989 25.6667 34.6069 26.344 35.0229 26.824C35.4495 27.304 36.0255 27.544 36.7509 27.544ZM43.0278 29V20.936H44.6438V29H43.0278ZM42.8997 19.256V17.576H44.7718V19.256H42.8997ZM50.1481 29.144C49.2735 29.144 48.6121 28.9093 48.1641 28.44C47.7161 27.96 47.4921 27.2453 47.4921 26.296V22.184H45.9241V20.936H47.4921V18.808L49.1081 18.376V20.936H51.3481V22.184H49.1081V26.152C49.1081 26.7493 49.2148 27.176 49.4281 27.432C49.6415 27.688 49.9508 27.816 50.3561 27.816C50.5588 27.816 50.7348 27.8 50.8841 27.768C51.0441 27.7253 51.1881 27.6773 51.3161 27.624V28.936C51.1561 29 50.9695 29.048 50.7561 29.08C50.5428 29.1227 50.3401 29.144 50.1481 29.144ZM56.4745 29.144C55.1732 29.144 54.1492 28.776 53.4025 28.04C52.6558 27.304 52.2825 26.2853 52.2825 24.984C52.2825 24.1413 52.4425 23.4053 52.7625 22.776C53.0932 22.1467 53.5465 21.6613 54.1225 21.32C54.7092 20.968 55.3865 20.792 56.1545 20.792C56.9118 20.792 57.5465 20.952 58.0585 21.272C58.5705 21.592 58.9598 22.0453 59.2265 22.632C59.4932 23.208 59.6265 23.8907 59.6265 24.68V25.192H53.5465V24.264H58.5225L58.2505 24.472C58.2505 23.672 58.0692 23.0533 57.7065 22.616C57.3545 22.168 56.8425 21.944 56.1705 21.944C55.4238 21.944 54.8478 22.2053 54.4425 22.728C54.0372 23.24 53.8345 23.9493 53.8345 24.856V25.016C53.8345 25.9653 54.0638 26.68 54.5225 27.16C54.9918 27.64 55.6532 27.88 56.5065 27.88C56.9758 27.88 57.4132 27.816 57.8185 27.688C58.2345 27.5493 58.6292 27.3253 59.0025 27.016L59.5305 28.12C59.1572 28.4507 58.7038 28.7067 58.1705 28.888C57.6372 29.0587 57.0718 29.144 56.4745 29.144ZM68.5145 29.144C67.8425 29.144 67.2238 29.0587 66.6585 28.888C66.0932 28.7173 65.6238 28.4773 65.2505 28.168L65.7465 27.064C66.1412 27.3627 66.5785 27.5867 67.0585 27.736C67.5385 27.8853 68.0292 27.96 68.5305 27.96C69.1172 27.96 69.5598 27.8587 69.8585 27.656C70.1572 27.4427 70.3065 27.1547 70.3065 26.792C70.3065 26.5147 70.2105 26.2907 70.0185 26.12C69.8372 25.9493 69.5332 25.8213 69.1065 25.736L67.5705 25.432C66.8878 25.2827 66.3705 25.0267 66.0185 24.664C65.6665 24.3013 65.4905 23.8373 65.4905 23.272C65.4905 22.792 65.6185 22.3653 65.8745 21.992C66.1412 21.6187 66.5145 21.3253 66.9945 21.112C67.4852 20.8987 68.0558 20.792 68.7065 20.792C69.3038 20.792 69.8585 20.8773 70.3705 21.048C70.8825 21.2187 71.3092 21.464 71.6505 21.784L71.1385 22.856C70.8078 22.5787 70.4345 22.3653 70.0185 22.216C69.6025 22.056 69.1812 21.976 68.7545 21.976C68.1572 21.976 67.7145 22.088 67.4265 22.312C67.1385 22.536 66.9945 22.8293 66.9945 23.192C66.9945 23.4693 67.0798 23.6987 67.2505 23.88C67.4318 24.0507 67.7145 24.184 68.0985 24.28L69.6345 24.584C70.3598 24.7333 70.9038 24.9787 71.2665 25.32C71.6292 25.6613 71.8105 26.12 71.8105 26.696C71.8105 27.1973 71.6718 27.6347 71.3945 28.008C71.1172 28.3813 70.7332 28.664 70.2425 28.856C69.7518 29.048 69.1758 29.144 68.5145 29.144ZM76.5793 29.144C75.6086 29.144 74.8779 28.8827 74.3873 28.36C73.9073 27.8267 73.6673 27.0107 73.6673 25.912V20.936H75.2833V25.88C75.2833 26.552 75.4219 27.048 75.6993 27.368C75.9766 27.688 76.3979 27.848 76.9633 27.848C77.6033 27.848 78.1206 27.6347 78.5153 27.208C78.9099 26.7813 79.1073 26.216 79.1073 25.512V20.936H80.7233V29H79.1553V27.272H79.3633C79.1393 27.8693 78.7819 28.3333 78.2913 28.664C77.8006 28.984 77.2299 29.144 76.5793 29.144ZM86.1783 29.144C85.4636 29.144 84.8396 28.9787 84.3063 28.648C83.7729 28.3173 83.3569 27.8373 83.0583 27.208C82.7703 26.5787 82.6263 25.832 82.6263 24.968C82.6263 24.0933 82.7703 23.3467 83.0583 22.728C83.3569 22.1093 83.7729 21.6347 84.3063 21.304C84.8396 20.9627 85.4636 20.792 86.1783 20.792C86.8823 20.792 87.4956 20.968 88.0183 21.32C88.5409 21.672 88.8876 22.152 89.0583 22.76H88.8823L89.0423 20.936H90.6103C90.5783 21.2667 90.5463 21.5973 90.5143 21.928C90.4929 22.248 90.4823 22.5627 90.4823 22.872V29H88.8663V27.208H89.0423C88.8716 27.8053 88.5196 28.28 87.9863 28.632C87.4636 28.9733 86.8609 29.144 86.1783 29.144ZM86.5783 27.88C87.2716 27.88 87.8263 27.6347 88.2423 27.144C88.6689 26.6533 88.8823 25.928 88.8823 24.968C88.8823 24.008 88.6689 23.288 88.2423 22.808C87.8263 22.3173 87.2716 22.072 86.5783 22.072C85.8743 22.072 85.3089 22.3173 84.8823 22.808C84.4663 23.288 84.2582 24.008 84.2582 24.968C84.2582 25.928 84.4663 26.6533 84.8823 27.144C85.2983 27.6347 85.8636 27.88 86.5783 27.88ZM97.1059 29V22.872C97.1059 22.5627 97.0899 22.248 97.0579 21.928C97.0365 21.5973 97.0099 21.2667 96.9779 20.936H98.5459L98.6899 22.632H98.4979C98.7219 22.0453 99.0632 21.592 99.5219 21.272C99.9912 20.952 100.551 20.792 101.202 20.792C101.863 20.792 102.402 20.952 102.818 21.272C103.245 21.5813 103.538 22.0613 103.698 22.712H103.442C103.655 22.1253 104.018 21.6613 104.53 21.32C105.042 20.968 105.634 20.792 106.306 20.792C107.202 20.792 107.874 21.0533 108.322 21.576C108.77 22.0987 108.994 22.9093 108.994 24.008V29H107.378V24.088C107.378 23.384 107.255 22.8773 107.01 22.568C106.775 22.248 106.391 22.088 105.858 22.088C105.239 22.088 104.749 22.3013 104.386 22.728C104.023 23.1547 103.842 23.7307 103.842 24.456V29H102.226V24.088C102.226 23.384 102.103 22.8773 101.858 22.568C101.623 22.248 101.239 22.088 100.706 22.088C100.087 22.088 99.6019 22.3013 99.2499 22.728C98.8979 23.1547 98.7219 23.7307 98.7219 24.456V29H97.1059ZM115.037 29.144C113.736 29.144 112.712 28.776 111.965 28.04C111.218 27.304 110.845 26.2853 110.845 24.984C110.845 24.1413 111.005 23.4053 111.325 22.776C111.656 22.1467 112.109 21.6613 112.685 21.32C113.272 20.968 113.949 20.792 114.717 20.792C115.474 20.792 116.109 20.952 116.621 21.272C117.133 21.592 117.522 22.0453 117.789 22.632C118.056 23.208 118.189 23.8907 118.189 24.68V25.192H112.109V24.264H117.085L116.813 24.472C116.813 23.672 116.632 23.0533 116.269 22.616C115.917 22.168 115.405 21.944 114.733 21.944C113.986 21.944 113.41 22.2053 113.005 22.728C112.6 23.24 112.397 23.9493 112.397 24.856V25.016C112.397 25.9653 112.626 26.68 113.085 27.16C113.554 27.64 114.216 27.88 115.069 27.88C115.538 27.88 115.976 27.816 116.381 27.688C116.797 27.5493 117.192 27.3253 117.565 27.016L118.093 28.12C117.72 28.4507 117.266 28.7067 116.733 28.888C116.2 29.0587 115.634 29.144 115.037 29.144ZM120.043 29V22.872C120.043 22.5627 120.027 22.248 119.995 21.928C119.974 21.5973 119.947 21.2667 119.915 20.936H121.483L121.627 22.632H121.435C121.681 22.0347 122.059 21.5813 122.571 21.272C123.083 20.952 123.675 20.792 124.347 20.792C125.297 20.792 126.011 21.0533 126.491 21.576C126.982 22.0987 127.227 22.9093 127.227 24.008V29H125.611V24.104C125.611 23.3893 125.467 22.8773 125.179 22.568C124.902 22.248 124.475 22.088 123.899 22.088C123.217 22.088 122.673 22.3013 122.267 22.728C121.862 23.144 121.659 23.7093 121.659 24.424V29H120.043ZM132.296 29.144C131.624 29.144 131.005 29.0587 130.44 28.888C129.874 28.7173 129.405 28.4773 129.032 28.168L129.528 27.064C129.922 27.3627 130.36 27.5867 130.84 27.736C131.32 27.8853 131.81 27.96 132.312 27.96C132.898 27.96 133.341 27.8587 133.64 27.656C133.938 27.4427 134.088 27.1547 134.088 26.792C134.088 26.5147 133.992 26.2907 133.8 26.12C133.618 25.9493 133.314 25.8213 132.888 25.736L131.352 25.432C130.669 25.2827 130.152 25.0267 129.8 24.664C129.448 24.3013 129.272 23.8373 129.272 23.272C129.272 22.792 129.4 22.3653 129.656 21.992C129.922 21.6187 130.296 21.3253 130.776 21.112C131.266 20.8987 131.837 20.792 132.488 20.792C133.085 20.792 133.64 20.8773 134.152 21.048C134.664 21.2187 135.09 21.464 135.432 21.784L134.92 22.856C134.589 22.5787 134.216 22.3653 133.8 22.216C133.384 22.056 132.962 21.976 132.536 21.976C131.938 21.976 131.496 22.088 131.208 22.312C130.92 22.536 130.776 22.8293 130.776 23.192C130.776 23.4693 130.861 23.6987 131.032 23.88C131.213 24.0507 131.496 24.184 131.88 24.28L133.416 24.584C134.141 24.7333 134.685 24.9787 135.048 25.32C135.41 25.6613 135.592 26.12 135.592 26.696C135.592 27.1973 135.453 27.6347 135.176 28.008C134.898 28.3813 134.514 28.664 134.024 28.856C133.533 29.048 132.957 29.144 132.296 29.144ZM140.585 29.144C139.87 29.144 139.246 28.9787 138.713 28.648C138.179 28.3173 137.763 27.8373 137.465 27.208C137.177 26.5787 137.033 25.832 137.033 24.968C137.033 24.0933 137.177 23.3467 137.465 22.728C137.763 22.1093 138.179 21.6347 138.713 21.304C139.246 20.9627 139.87 20.792 140.585 20.792C141.289 20.792 141.902 20.968 142.425 21.32C142.947 21.672 143.294 22.152 143.465 22.76H143.289L143.449 20.936H145.017C144.985 21.2667 144.953 21.5973 144.921 21.928C144.899 22.248 144.889 22.5627 144.889 22.872V29H143.273V27.208H143.449C143.278 27.8053 142.926 28.28 142.393 28.632C141.87 28.9733 141.267 29.144 140.585 29.144ZM140.985 27.88C141.678 27.88 142.233 27.6347 142.649 27.144C143.075 26.6533 143.289 25.928 143.289 24.968C143.289 24.008 143.075 23.288 142.649 22.808C142.233 22.3173 141.678 22.072 140.985 22.072C140.281 22.072 139.715 22.3173 139.289 22.808C138.873 23.288 138.664 24.008 138.664 24.968C138.664 25.928 138.873 26.6533 139.289 27.144C139.705 27.6347 140.27 27.88 140.985 27.88ZM150.879 32.584C150.153 32.584 149.492 32.4987 148.895 32.328C148.308 32.1573 147.78 31.9013 147.311 31.56L147.711 30.376C148.041 30.6 148.367 30.776 148.687 30.904C149.007 31.0427 149.343 31.144 149.695 31.208C150.047 31.272 150.409 31.304 150.783 31.304C151.551 31.304 152.127 31.1067 152.511 30.712C152.905 30.328 153.103 29.768 153.103 29.032V26.872H153.263C153.092 27.4693 152.74 27.944 152.207 28.296C151.684 28.6373 151.076 28.808 150.383 28.808C149.647 28.808 149.007 28.648 148.463 28.328C147.929 27.9973 147.513 27.5333 147.215 26.936C146.927 26.328 146.783 25.6133 146.783 24.792C146.783 23.9707 146.927 23.2613 147.215 22.664C147.513 22.0667 147.929 21.608 148.463 21.288C149.007 20.9573 149.647 20.792 150.383 20.792C151.087 20.792 151.695 20.968 152.207 21.32C152.729 21.6613 153.076 22.1307 153.247 22.728L153.103 22.6L153.247 20.936H154.815C154.772 21.2667 154.74 21.5973 154.719 21.928C154.697 22.248 154.687 22.5627 154.687 22.872V28.84C154.687 30.056 154.361 30.984 153.711 31.624C153.071 32.264 152.127 32.584 150.879 32.584ZM150.766 27.544C151.471 27.544 152.031 27.304 152.447 26.824C152.873 26.344 153.087 25.6667 153.087 24.792C153.087 23.9173 152.873 23.2453 152.447 22.776C152.031 22.3067 151.471 22.072 150.766 22.072C150.041 22.072 149.465 22.3067 149.039 22.776C148.623 23.2453 148.414 23.9173 148.414 24.792C148.414 25.6667 148.623 26.344 149.039 26.824C149.465 27.304 150.041 27.544 150.766 27.544ZM160.771 29.144C159.47 29.144 158.446 28.776 157.699 28.04C156.953 27.304 156.579 26.2853 156.579 24.984C156.579 24.1413 156.739 23.4053 157.059 22.776C157.39 22.1467 157.843 21.6613 158.419 21.32C159.006 20.968 159.683 20.792 160.451 20.792C161.209 20.792 161.843 20.952 162.355 21.272C162.867 21.592 163.257 22.0453 163.523 22.632C163.79 23.208 163.923 23.8907 163.923 24.68V25.192H157.843V24.264H162.819L162.547 24.472C162.547 23.672 162.366 23.0533 162.003 22.616C161.651 22.168 161.139 21.944 160.467 21.944C159.721 21.944 159.145 22.2053 158.739 22.728C158.334 23.24 158.131 23.9493 158.131 24.856V25.016C158.131 25.9653 158.361 26.68 158.819 27.16C159.289 27.64 159.95 27.88 160.803 27.88C161.273 27.88 161.71 27.816 162.115 27.688C162.531 27.5493 162.926 27.3253 163.299 27.016L163.827 28.12C163.454 28.4507 163.001 28.7067 162.467 28.888C161.934 29.0587 161.369 29.144 160.771 29.144ZM165.778 29V22.872C165.778 22.5627 165.762 22.248 165.73 21.928C165.708 21.5973 165.682 21.2667 165.65 20.936H167.218L167.362 22.632H167.17C167.394 22.0453 167.735 21.592 168.194 21.272C168.663 20.952 169.223 20.792 169.874 20.792C170.535 20.792 171.074 20.952 171.49 21.272C171.916 21.5813 172.21 22.0613 172.37 22.712H172.114C172.327 22.1253 172.69 21.6613 173.202 21.32C173.714 20.968 174.306 20.792 174.978 20.792C175.874 20.792 176.546 21.0533 176.994 21.576C177.442 22.0987 177.666 22.9093 177.666 24.008V29H176.05V24.088C176.05 23.384 175.927 22.8773 175.682 22.568C175.447 22.248 175.063 22.088 174.53 22.088C173.911 22.088 173.42 22.3013 173.058 22.728C172.695 23.1547 172.514 23.7307 172.514 24.456V29H170.898V24.088C170.898 23.384 170.775 22.8773 170.53 22.568C170.295 22.248 169.911 22.088 169.378 22.088C168.759 22.088 168.274 22.3013 167.922 22.728C167.57 23.1547 167.394 23.7307 167.394 24.456V29H165.778ZM187.335 29.144C186.62 29.144 185.996 28.9787 185.463 28.648C184.929 28.3173 184.513 27.8373 184.215 27.208C183.927 26.5787 183.783 25.832 183.783 24.968C183.783 24.0933 183.927 23.3467 184.215 22.728C184.513 22.1093 184.929 21.6347 185.463 21.304C185.996 20.9627 186.62 20.792 187.335 20.792C188.039 20.792 188.652 20.968 189.175 21.32C189.697 21.672 190.044 22.152 190.215 22.76H190.039L190.199 20.936H191.767C191.735 21.2667 191.703 21.5973 191.671 21.928C191.649 22.248 191.639 22.5627 191.639 22.872V29H190.023V27.208H190.199C190.028 27.8053 189.676 28.28 189.143 28.632C188.62 28.9733 188.017 29.144 187.335 29.144ZM187.735 27.88C188.428 27.88 188.983 27.6347 189.399 27.144C189.825 26.6533 190.039 25.928 190.039 24.968C190.039 24.008 189.825 23.288 189.399 22.808C188.983 22.3173 188.428 22.072 187.735 22.072C187.031 22.072 186.465 22.3173 186.039 22.808C185.623 23.288 185.414 24.008 185.414 24.968C185.414 25.928 185.623 26.6533 186.039 27.144C186.455 27.6347 187.02 27.88 187.735 27.88ZM199.773 32.456V27.208H199.949C199.778 27.8053 199.426 28.28 198.893 28.632C198.37 28.9733 197.767 29.144 197.085 29.144C196.37 29.144 195.746 28.9787 195.213 28.648C194.679 28.3173 194.263 27.8373 193.965 27.208C193.677 26.5787 193.533 25.832 193.533 24.968C193.533 24.0933 193.677 23.3467 193.965 22.728C194.263 22.1093 194.679 21.6347 195.213 21.304C195.746 20.9627 196.37 20.792 197.085 20.792C197.789 20.792 198.402 20.968 198.925 21.32C199.447 21.672 199.794 22.152 199.965 22.76H199.789L199.949 20.936H201.517C201.485 21.2667 201.453 21.5973 201.421 21.928C201.399 22.248 201.389 22.5627 201.389 22.872V32.456H199.773ZM197.485 27.88C198.178 27.88 198.733 27.6347 199.149 27.144C199.575 26.6533 199.789 25.928 199.789 24.968C199.789 24.008 199.575 23.288 199.149 22.808C198.733 22.3173 198.178 22.072 197.485 22.072C196.781 22.072 196.215 22.3173 195.789 22.808C195.373 23.288 195.164 24.008 195.164 24.968C195.164 25.928 195.373 26.6533 195.789 27.144C196.205 27.6347 196.77 27.88 197.485 27.88ZM206.611 29.144C205.64 29.144 204.909 28.8827 204.419 28.36C203.939 27.8267 203.699 27.0107 203.699 25.912V20.936H205.315V25.88C205.315 26.552 205.453 27.048 205.731 27.368C206.008 27.688 206.429 27.848 206.995 27.848C207.635 27.848 208.152 27.6347 208.547 27.208C208.941 26.7813 209.139 26.216 209.139 25.512V20.936H210.755V29H209.187V27.272H209.395C209.171 27.8693 208.813 28.3333 208.323 28.664C207.832 28.984 207.261 29.144 206.611 29.144ZM213.122 29V20.936H214.738V29H213.122ZM212.993 19.256V17.576H214.866V19.256H212.993ZM216.866 29V27.096H218.77V29H216.866ZM220.663 29V27.096H222.567V29H220.663ZM224.46 29V27.096H226.364V29H224.46Z" fill="#312D64"/>
<rect x="0.75" y="0.75" width="346.5" height="124.5" rx="15.25" stroke="#312D64" stroke-width="1.5"/>
</svg>
